# Blender v2.78 (sub 0) OBJ File: ''
# www.blender.org
mtllib LetterV.mtl
o instance_0.001_ID22
v 0.000000 0.598260 -0.040000
v 0.236881 0.224849 -0.040000
v 0.188984 0.103098 -0.040000
v 0.093479 0.598260 -0.040000
v 0.473036 0.596416 -0.040000
v 0.229618 -0.003367 -0.040000
v 0.388610 0.596416 -0.040000
v 0.388610 0.596416 -0.040000
v 0.236881 0.224849 -0.040000
v 0.473036 0.596416 -0.040000
v 0.188984 0.103098 -0.040000
v 0.229618 -0.003367 -0.040000
v 0.093479 0.598260 -0.040000
v 0.000000 0.598260 -0.040000
v 0.188984 0.103098 -0.040000
v 0.000000 0.598260 -0.040000
v 0.093479 0.598260 -0.040000
v 0.236881 0.224849 -0.040000
v 0.388610 0.596416 -0.040000
v 0.473036 0.596416 -0.040000
v 0.229618 -0.003367 -0.040000
vt -0.2424 0.8715
vt -0.5056 0.4566
vt -0.4524 0.3214
vt -0.3463 0.8715
vt -0.7680 0.8695
vt -0.4976 0.2031
vt -0.6742 0.8695
vt 0.0000 0.0000
vt 0.0000 0.0000
vt 0.0000 0.0000
vt 0.0000 0.0000
vt 0.0000 0.0000
vt 0.0000 0.0000
vt 0.0000 0.0000
vn -0.0000 0.0000 -1.0000
vn 0.0000 0.0000 1.0000
usemtl material_1
s off
f 1/1/1 2/2/1 3/3/1
f 2/2/1 1/1/1 4/4/1
f 3/3/1 5/5/1 6/6/1
f 5/5/1 3/3/1 2/2/1
f 5/5/1 2/2/1 7/7/1
usemtl material
f 8/8/2 9/9/2 10/10/2
f 9/9/2 11/11/2 10/10/2
f 12/12/2 10/10/2 11/11/2
f 13/13/2 14/14/2 9/9/2
f 11/11/2 9/9/2 14/14/2
l 15 16
l 16 17
l 17 18
l 18 19
l 20 19
l 20 21
l 15 21
o instance_0_ID5
v 0.473036 0.596416 0.000000
v 0.388610 0.596416 -0.040000
v 0.388610 0.596416 0.000000
v 0.473036 0.596416 -0.040000
v 0.473036 0.596416 -0.040000
v 0.473036 0.596416 0.000000
v 0.388610 0.596416 -0.040000
v 0.388610 0.596416 0.000000
v 0.473036 0.596416 0.000000
v 0.388610 0.596416 0.000000
v 0.473036 0.596416 -0.040000
v 0.388610 0.596416 -0.040000
v 0.473036 0.596416 0.000000
v 0.188984 0.103098 0.000000
v 0.229618 -0.003367 0.000000
v 0.236881 0.224849 0.000000
v 0.388610 0.596416 0.000000
v 0.000000 0.598260 0.000000
v 0.093479 0.598260 0.000000
v 0.093479 0.598260 0.000000
v 0.236881 0.224849 0.000000
v 0.000000 0.598260 0.000000
v 0.188984 0.103098 0.000000
v 0.388610 0.596416 0.000000
v 0.473036 0.596416 0.000000
v 0.229618 -0.003367 0.000000
v 0.188984 0.103098 0.000000
v 0.000000 0.598260 0.000000
v 0.229618 -0.003367 0.000000
v 0.236881 0.224849 0.000000
v 0.093479 0.598260 0.000000
v 0.229618 -0.003367 -0.040000
v 0.473036 0.596416 0.000000
v 0.229618 -0.003367 0.000000
v 0.473036 0.596416 -0.040000
v 0.473036 0.596416 -0.040000
v 0.229618 -0.003367 -0.040000
v 0.473036 0.596416 0.000000
v 0.229618 -0.003367 0.000000
v 0.229618 -0.003367 -0.040000
v 0.388610 0.596416 -0.040000
v 0.236881 0.224849 0.000000
v 0.388610 0.596416 0.000000
v 0.236881 0.224849 -0.040000
v 0.236881 0.224849 -0.040000
v 0.388610 0.596416 -0.040000
v 0.236881 0.224849 0.000000
v 0.388610 0.596416 0.000000
v 0.236881 0.224849 -0.040000
v 0.000000 0.598260 -0.040000
v 0.188984 0.103098 0.000000
v 0.000000 0.598260 0.000000
v 0.188984 0.103098 -0.040000
v 0.188984 0.103098 -0.040000
v 0.000000 0.598260 -0.040000
v 0.188984 0.103098 0.000000
v 0.000000 0.598260 0.000000
v 0.000000 0.598260 -0.040000
v 0.188984 0.103098 -0.040000
v 0.229618 -0.003367 0.000000
v 0.229618 -0.003367 -0.040000
v 0.229618 -0.003367 -0.040000
v 0.229618 -0.003367 0.000000
v 0.236881 0.224849 -0.040000
v 0.093479 0.598260 0.000000
v 0.236881 0.224849 0.000000
v 0.093479 0.598260 -0.040000
v 0.093479 0.598260 -0.040000
v 0.236881 0.224849 -0.040000
v 0.093479 0.598260 0.000000
v 0.236881 0.224849 0.000000
v 0.093479 0.598260 -0.040000
v 0.093479 0.598260 0.000000
v 0.000000 0.598260 -0.040000
v 0.000000 0.598260 0.000000
v 0.093479 0.598260 -0.040000
v 0.093479 0.598260 -0.040000
v 0.093479 0.598260 0.000000
v 0.000000 0.598260 -0.040000
v 0.000000 0.598260 0.000000
vt 0.7680 0.0000
vt 0.6742 0.0444
vt 0.6742 0.0000
vt 0.7680 0.0444
vt 0.7680 0.0444
vt 0.7680 0.0000
vt 0.6742 0.0444
vt 0.6742 0.0000
vt 0.7680 0.8695
vt 0.4524 0.3214
vt 0.4976 0.2031
vt 0.5056 0.4566
vt 0.6742 0.8695
vt 0.2424 0.8715
vt 0.3463 0.8715
vt 0.3463 0.8715
vt 0.5056 0.4566
vt 0.2424 0.8715
vt 0.4524 0.3214
vt 0.6742 0.8695
vt 0.7680 0.8695
vt 0.4976 0.2031
vt 0.0444 0.3753
vt 0.0000 1.0945
vt 0.0000 0.3753
vt 0.0444 1.0945
vt 0.0444 1.0945
vt 0.0444 0.3753
vt 0.0000 1.0945
vt 0.0000 0.3753
vt -0.0444 1.0599
vt 0.0000 0.6139
vt 0.0000 1.0599
vt -0.0444 0.6139
vt -0.0444 0.6139
vt -0.0444 1.0599
vt 0.0000 0.6139
vt 0.0000 1.0599
vt -0.0444 0.7278
vt 0.0000 0.1389
vt 0.0000 0.7278
vt -0.0444 0.1389
vt -0.0444 0.1389
vt -0.0444 0.7278
vt 0.0000 0.1389
vt 0.0000 0.7278
vt 0.1980 0.2331
vt 0.2424 0.1065
vt 0.2424 0.2331
vt 0.1980 0.1065
vt 0.1980 0.1065
vt 0.1980 0.2331
vt 0.2424 0.1065
vt 0.2424 0.2331
vt 0.0444 0.2450
vt 0.0000 0.6895
vt 0.0000 0.2450
vt 0.0444 0.6895
vt 0.0444 0.6895
vt 0.0444 0.2450
vt 0.0000 0.6895
vt 0.0000 0.2450
vt 0.3463 0.0000
vt 0.2424 0.0444
vt 0.2424 0.0000
vt 0.3463 0.0444
vt 0.3463 0.0444
vt 0.3463 0.0000
vt 0.2424 0.0444
vt 0.2424 0.0000
vn 0.0000 1.0000 0.0000
vn 0.0000 -1.0000 0.0000
vn 0.0000 0.0000 1.0000
vn 0.0000 0.0000 -1.0000
vn 0.9266 -0.3761 0.0000
vn -0.9266 0.3761 0.0000
vn -0.9258 0.3780 0.0000
vn 0.9258 -0.3780 0.0000
vn -0.9343 -0.3566 0.0000
vn 0.9343 0.3566 0.0000
vn 0.9335 0.3585 0.0000
vn -0.9335 -0.3585 0.0000
usemtl material_1
s off
f 22/15/3 23/16/3 24/17/3
f 23/16/3 22/15/3 25/18/3
f 26/19/4 27/20/4 28/21/4
f 29/22/4 28/21/4 27/20/4
f 34/23/5 35/24/5 36/25/5
f 35/24/5 34/23/5 37/26/5
f 37/26/5 34/23/5 38/27/5
f 37/26/5 39/28/5 35/24/5
f 39/28/5 37/26/5 40/29/5
f 41/30/6 42/31/6 43/32/6
f 44/33/6 43/32/6 42/31/6
f 45/34/6 46/35/6 42/31/6
f 42/31/6 46/35/6 44/33/6
f 47/36/6 44/33/6 46/35/6
f 53/37/7 54/38/7 55/39/7
f 54/38/7 53/37/7 56/40/7
f 57/41/8 58/42/8 59/43/8
f 60/44/8 59/43/8 58/42/8
f 62/45/9 63/46/9 64/47/9
f 63/46/9 62/45/9 65/48/9
f 66/49/10 67/50/10 68/51/10
f 69/52/10 68/51/10 67/50/10
f 71/53/11 72/54/11 73/55/11
f 72/54/11 71/53/11 74/56/11
f 75/57/12 76/58/12 77/59/12
f 78/60/12 77/59/12 76/58/12
f 74/61/11 81/62/11 72/63/11
f 81/62/11 74/61/11 82/64/11
f 83/65/12 75/66/12 84/67/12
f 77/68/12 84/67/12 75/66/12
f 85/69/13 86/70/13 87/71/13
f 86/70/13 85/69/13 88/72/13
f 89/73/14 90/74/14 91/75/14
f 92/76/14 91/75/14 90/74/14
f 94/77/3 95/78/3 96/79/3
f 95/78/3 94/77/3 97/80/3
f 98/81/4 99/82/4 100/83/4
f 101/84/4 100/83/4 99/82/4
l 30 31
l 32 33
l 48 49
l 30 50
l 51 31
l 52 51
l 49 52
l 32 61
l 70 33
l 80 79
l 93 70
l 79 93
l 30 32
l 31 33
l 48 50
l 50 61
l 51 70
l 49 79
l 48 80
l 80 61
l 52 93
